<?xml version="1.0" standalone="no"?><!DOCTYPE svg PUBLIC "-//W3C//DTD SVG 1.1//EN" "http://www.w3.org/Graphics/SVG/1.1/DTD/svg11.dtd"><svg t="1685452516955" class="icon" viewBox="0 0 1024 1024" version="1.1" xmlns="http://www.w3.org/2000/svg" p-id="4106" xmlns:xlink="http://www.w3.org/1999/xlink" width="200" height="200"><path d="M522.88 534.528C593.216 488.832 640 409.92 640 320c0-141.184-114.816-256-256-256S128 178.816 128 320c0 89.92 46.784 168.832 117.12 214.528C102.016 581.632 0 701.312 0 864 0 881.664 14.336 896 32 896l704 0c17.664 0 32-14.336 32-32C768 701.312 665.984 581.632 522.88 534.528zM804.288 538.048C878.144 493.056 928 412.544 928 320c0-141.184-114.816-256-256-256C654.336 64 640 78.336 640 96S654.336 128 672 128c105.856 0 192 86.144 192 192 0 70.848-38.656 132.48-96 165.632-56.128 34.304-71.424 83.392 0 109.184 111.424 39.552 192 144.32 192 269.184 0 17.664 14.336 32 32 32s32-14.336 32-32C1024 716.736 932.992 590.528 804.288 538.048z" p-id="4107"></path></svg>