<?xml version="1.0" standalone="no"?><!DOCTYPE svg PUBLIC "-//W3C//DTD SVG 1.1//EN" "http://www.w3.org/Graphics/SVG/1.1/DTD/svg11.dtd"><svg t="1685366839976" class="icon" viewBox="0 0 1024 1024" version="1.1" xmlns="http://www.w3.org/2000/svg" p-id="3848" xmlns:xlink="http://www.w3.org/1999/xlink" width="200" height="200"><path d="M494.741333 135.68c-9.6-16.64-31.061333-29.013333-50.346666-29.013333h-86.314667c-25.962667 0-43.050667 22.869333-35.882667 47.765333L394.389333 405.333333h-156.224l-79.701333-79.146666a21.333333 21.333333 0 0 0-15.04-6.186667h-86.186667c-26.666667 0-43.093333 23.872-33.664 48.789333L77.653333 512l-54.08 143.210667C14.144 680.149333 30.613333 704 57.237333 704h86.186667a21.333333 21.333333 0 0 0 15.04-6.186667L238.165333 618.666667h156.224l-72.192 250.901333C315.029333 894.506667 332.245333 917.333333 358.08 917.333333h86.336c19.370667 0 40.746667-12.373333 50.389333-29.141333l163.626667-280.106667a21.333333 21.333333 0 0 0-36.842667-21.504L457.898667 866.773333c-2.133333 3.690667-9.386667 7.893333-13.482667 7.893334h-79.296l78.101333-271.424a21.333333 21.333333 0 0 0-20.48-27.242667h-193.365333a21.333333 21.333333 0 0 0-15.04 6.186667L134.634667 661.333333H66.858667l53.546666-141.802666a21.333333 21.333333 0 0 0 0-15.061334L66.88 362.666667h67.776l79.701333 79.146666a21.333333 21.333333 0 0 0 15.04 6.186667h193.344a21.333333 21.333333 0 0 0 20.501334-27.242667L365.141333 149.333333h79.274667c4.032 0 11.392 4.245333 13.418667 7.765334l163.754666 280.32A21.333333 21.333333 0 0 0 640 448h255.914667A63.957333 63.957333 0 0 1 960 512c0 35.285333-28.672 64-63.978667 64H768a21.333333 21.333333 0 0 0 0 42.666667h128.021333A106.709333 106.709333 0 0 0 1002.666667 512c0-58.965333-47.701333-106.666667-106.752-106.666667H652.245333L494.741333 135.68z" fill="#3D3D3D" p-id="3849"></path></svg>